# xmcd
#
# Track frame offsets:
#	150
#	12122
#	24430
#	35445
#	46530
#	56762
#	67977
#	79725
#	89405
#	99580
#	112270
#	122470
#	133757
#	147155
#	157097
#	167185
#	183782
#	198377
#	207557
#	217145
#
# Disc length: 3055
#
# Revision: 2
# Processed by: cddbd v1.5.1PL0 Copyright (c) Steve Scherf et al.
# Submitted via: EasyCDDAExtractor 5.1.0
# Normalized: r1:DSETVAR1
#
DISCID=1c0bed14
DTITLE=Various Artist - Mega Country CD4
DYEAR=2003
DGENRE=Country
TTITLE0=Waylon Jennings - Don't think twice, it's alright
TTITLE1=Willie Nelson - The shelter of your arms
TTITLE2=Don Gibson - Oh lonesome me
TTITLE3=Johnny Paycheck - Tender years
TTITLE4=Faron Young - Live fast, love hard, die young
TTITLE5=Hank Locklin - Send me the pillow you dream on
TTITLE6=Al Hirt and Ace Cannon - Games people play
TTITLE7=Mickey Gilley - Fraulein
TTITLE8=Connie Smith - Once a day
TTITLE9=Dave Duddley - The pool shark
TTITLE10=Jan Howard - Evil on your mind
TTITLE11=Carl Smith - Loose talk
TTITLE12=David Houston - Almost persuaded
TTITLE13=Jimmy C. Newman - A fallen star
TTITLE14=Warner Mack - the bridge washed out
TTITLE15=Ray Price - You're the best thing that ever happened
TTITLE16=Lee Greenwood - Mronin' ride
TTITLE17=Jimmy Dean - The first thing ev'ry morning
TTITLE18=Ned Miller - From a jack to a king
TTITLE19=Roy Drusky - Yes Mr Peters
EXTD=
EXTT0=
EXTT1=
EXTT2=
EXTT3=
EXTT4=
EXTT5=
EXTT6=
EXTT7=
EXTT8=
EXTT9=
EXTT10=
EXTT11=
EXTT12=
EXTT13=
EXTT14=
EXTT15=
EXTT16=
EXTT17=
EXTT18=
EXTT19=
PLAYORDER=
